HIERARCHY
ROOT hip
{
  OFFSET 0.0298126 95.878 -0.219557
  CHANNELS 6 Xposition Yposition Zposition Zrotation Xrotation Yrotation
  JOINT abdomen
  {
    OFFSET 0 7.2397 0
    CHANNELS 6 Xposition Yposition Zposition Zrotation Xrotation Yrotation
    JOINT chest
    {
      OFFSET 0 16.546 0
      CHANNELS 6 Xposition Yposition Zposition Zrotation Xrotation Yrotation
      JOINT neck
      {
        OFFSET 0 34.2149 0
        CHANNELS 6 Xposition Yposition Zposition Zrotation Xrotation Yrotation
        JOINT head
        {
          OFFSET 0 6.2923 0
          CHANNELS 6 Xposition Yposition Zposition Zrotation Xrotation Yrotation
          End Site
          {
            OFFSET 0 21.2161 0
          }
        }
      }
      JOINT lCollar
      {
        OFFSET 4.0639 26.6115 -1.1234
        CHANNELS 6 Xposition Yposition Zposition Zrotation Xrotation Yrotation
        JOINT lShldr
        {
          OFFSET 14.1772 0 0
          CHANNELS 6 Xposition Yposition Zposition Zrotation Xrotation Yrotation
          JOINT lForeArm
          {
            OFFSET 26.1234 0 0
            CHANNELS 6 Xposition Yposition Zposition Zrotation Xrotation Yrotation
            JOINT lHand
            {
              OFFSET 27.7188 0 0
              CHANNELS 6 Xposition Yposition Zposition Zrotation Xrotation Yrotation
              JOINT lThumb1
              {
                OFFSET 2.2979 -0.4685 1.8313
                CHANNELS 6 Xposition Yposition Zposition Zrotation Xrotation Yrotation
                JOINT lThumb2
                {
                  OFFSET 5.2953 0 0
                  CHANNELS 6 Xposition Yposition Zposition Zrotation Xrotation Yrotation
                  JOINT lThumb3
                  {
                    OFFSET 3.0181 0 0
                    CHANNELS 6 Xposition Yposition Zposition Zrotation Xrotation Yrotation
                    End Site
                    {
                      OFFSET 2.6294 0 0
                    }
                  }
                }
              }
              JOINT lIndex1
              {
                OFFSET 9.3793 0.2991 2.5924
                CHANNELS 6 Xposition Yposition Zposition Zrotation Xrotation Yrotation
                JOINT lIndex2
                {
                  OFFSET 4.3461 0 0
                  CHANNELS 6 Xposition Yposition Zposition Zrotation Xrotation Yrotation
                  JOINT lIndex3
                  {
                    OFFSET 2.1666 0 0
                    CHANNELS 6 Xposition Yposition Zposition Zrotation Xrotation Yrotation
                    End Site
                    {
                      OFFSET 2.2048 0 0
                    }
                  }
                }
              }
              JOINT lMid1
              {
                OFFSET 9.4769 0.8376 0.2947
                CHANNELS 6 Xposition Yposition Zposition Zrotation Xrotation Yrotation
                JOINT lMid2
                {
                  OFFSET 4.772 0 0
                  CHANNELS 6 Xposition Yposition Zposition Zrotation Xrotation Yrotation
                  JOINT lMid3
                  {
                    OFFSET 2.8722 0 0
                    CHANNELS 6 Xposition Yposition Zposition Zrotation Xrotation Yrotation
                    End Site
                    {
                      OFFSET 2.0959 0 0
                    }
                  }
                }
              }
              JOINT lRing1
              {
                OFFSET 8.6586 1.0176 -1.7016
                CHANNELS 6 Xposition Yposition Zposition Zrotation Xrotation Yrotation
                JOINT lRing2
                {
                  OFFSET 4.5461 0 0
                  CHANNELS 6 Xposition Yposition Zposition Zrotation Xrotation Yrotation
                  JOINT lRing3
                  {
                    OFFSET 2.506 0 0
                    CHANNELS 6 Xposition Yposition Zposition Zrotation Xrotation Yrotation
                    End Site
                    {
                      OFFSET 2.2023 0 0
                    }
                  }
                }
              }
              JOINT lPinky1
              {
                OFFSET 7.6901 0.6618 -3.9096
                CHANNELS 6 Xposition Yposition Zposition Zrotation Xrotation Yrotation
                JOINT lPinky2
                {
                  OFFSET 3.2119 0 0
                  CHANNELS 6 Xposition Yposition Zposition Zrotation Xrotation Yrotation
                  JOINT lPinky3
                  {
                    OFFSET 1.924 0 0
                    CHANNELS 6 Xposition Yposition Zposition Zrotation Xrotation Yrotation
                    End Site
                    {
                      OFFSET 1.7829 0 0
                    }
                  }
                }
              }
            }
          }
        }
      }
      JOINT rCollar
      {
        OFFSET -4.0677 26.6109 -1.1234
        CHANNELS 6 Xposition Yposition Zposition Zrotation Xrotation Yrotation
        JOINT rShldr
        {
          OFFSET -14.1772 0 0
          CHANNELS 6 Xposition Yposition Zposition Zrotation Xrotation Yrotation
          JOINT rForeArm
          {
            OFFSET -26.1234 0 0
            CHANNELS 6 Xposition Yposition Zposition Zrotation Xrotation Yrotation
            JOINT rHand
            {
              OFFSET -27.7188 0 0
              CHANNELS 6 Xposition Yposition Zposition Zrotation Xrotation Yrotation
              JOINT rThumb1
              {
                OFFSET -2.2979 -0.4684 1.8313
                CHANNELS 6 Xposition Yposition Zposition Zrotation Xrotation Yrotation
                JOINT rThumb2
                {
                  OFFSET -5.2953 0 0
                  CHANNELS 6 Xposition Yposition Zposition Zrotation Xrotation Yrotation
                  JOINT rThumb3
                  {
                    OFFSET -3.0181 0 0
                    CHANNELS 6 Xposition Yposition Zposition Zrotation Xrotation Yrotation
                    End Site
                    {
                      OFFSET -2.6294 0 0
                    }
                  }
                }
              }
              JOINT rIndex1
              {
                OFFSET -9.3793 0.2991 2.5924
                CHANNELS 6 Xposition Yposition Zposition Zrotation Xrotation Yrotation
                JOINT rIndex2
                {
                  OFFSET -4.3461 0 0
                  CHANNELS 6 Xposition Yposition Zposition Zrotation Xrotation Yrotation
                  JOINT rIndex3
                  {
                    OFFSET -2.1666 0 0
                    CHANNELS 6 Xposition Yposition Zposition Zrotation Xrotation Yrotation
                    End Site
                    {
                      OFFSET -2.2048 0 0
                    }
                  }
                }
              }
              JOINT rMid1
              {
                OFFSET -9.4769 0.8376 0.2947
                CHANNELS 6 Xposition Yposition Zposition Zrotation Xrotation Yrotation
                JOINT rMid2
                {
                  OFFSET -4.772 0 0
                  CHANNELS 6 Xposition Yposition Zposition Zrotation Xrotation Yrotation
                  JOINT rMid3
                  {
                    OFFSET -2.8722 0 0
                    CHANNELS 6 Xposition Yposition Zposition Zrotation Xrotation Yrotation
                    End Site
                    {
                      OFFSET -2.0959 0 0
                    }
                  }
                }
              }
              JOINT rRing1
              {
                OFFSET -8.6586 1.0176 -1.7016
                CHANNELS 6 Xposition Yposition Zposition Zrotation Xrotation Yrotation
                JOINT rRing2
                {
                  OFFSET -4.5461 0 0
                  CHANNELS 6 Xposition Yposition Zposition Zrotation Xrotation Yrotation
                  JOINT rRing3
                  {
                    OFFSET -2.506 0 0
                    CHANNELS 6 Xposition Yposition Zposition Zrotation Xrotation Yrotation
                    End Site
                    {
                      OFFSET -2.2023 0 0
                    }
                  }
                }
              }
              JOINT rPinky1
              {
                OFFSET -7.6901 0.6618 -3.9096
                CHANNELS 6 Xposition Yposition Zposition Zrotation Xrotation Yrotation
                JOINT rPinky2
                {
                  OFFSET -3.2119 0 0
                  CHANNELS 6 Xposition Yposition Zposition Zrotation Xrotation Yrotation
                  JOINT rPinky3
                  {
                    OFFSET -1.924 0 0
                    CHANNELS 6 Xposition Yposition Zposition Zrotation Xrotation Yrotation
                    End Site
                    {
                      OFFSET -1.7829 0 0
                    }
                  }
                }
              }
            }
          }
        }
      }
    }
  }
  JOINT lThigh
  {
    OFFSET 8.7379 -0.0029 0.0005
    CHANNELS 6 Xposition Yposition Zposition Zrotation Xrotation Yrotation
    JOINT lShin
    {
      OFFSET 0 -46.6676 0
      CHANNELS 6 Xposition Yposition Zposition Zrotation Xrotation Yrotation
      JOINT lFoot
      {
        OFFSET 0 -40.1476 0
        CHANNELS 6 Xposition Yposition Zposition Zrotation Xrotation Yrotation
        JOINT lToes
        {
          OFFSET 0 -8.8846 14.2294
          CHANNELS 6 Xposition Yposition Zposition Zrotation Xrotation Yrotation
          End Site
          {
            OFFSET 0 0 6.296
          }
        }
      }
    }
  }
  JOINT rThigh
  {
    OFFSET -8.7379 0.0029 -0.0005
    CHANNELS 6 Xposition Yposition Zposition Zrotation Xrotation Yrotation
    JOINT rShin
    {
      OFFSET 0 -46.6676 0
      CHANNELS 6 Xposition Yposition Zposition Zrotation Xrotation Yrotation
      JOINT rFoot
      {
        OFFSET 0 -40.1476 0
        CHANNELS 6 Xposition Yposition Zposition Zrotation Xrotation Yrotation
        JOINT rToes
        {
          OFFSET 0 -8.8846 14.2294
          CHANNELS 6 Xposition Yposition Zposition Zrotation Xrotation Yrotation
          End Site
          {
            OFFSET 0 0 6.296
          }
        }
      }
    }
  }
}
MOTION
Frames:	4
Frame Time:	0.0333333
6.00574 94.6273 -11.4944 0.264557 4.40134 -23.1759 -8.88178e-16 7.2397 3.55271e-15 0.361867 -1.11344 1.37063 -8.88178e-16 16.546 0 0.350226 -0.362846 2.6808 0 34.2149 0 3.03089 18.7313 0.398818 0 6.2923 0 -3.52926 -12.8931 10.0747 4.0639 26.6115 -1.1234 -3.63499 -2.55318 -5.13803 14.1772 2.84217e-14 0 -67.3431 21.1045 4.87486 26.1234 0 0 -0.198274 -0.277839 -11.3231 27.7188 0 0 -13.5458 -3.02068 0.800952 2.2979 -0.4685 1.8313 79.1408 56.8979 -89.2112 5.2953 -7.10543e-15 -3.55271e-15 -31.858 5.53448 7.15242 3.0181 3.55271e-15 0 12.5411 5.32725 1.07756 9.3793 0.2991 2.5924 -18.1055 -2.35091 4.62794 4.3461 -3.55271e-15 7.10543e-15 -31.2192 -1.45336 6.18595 2.1666 0 0 -21.5943 -0.809416 3.84577 9.4769 0.8376 0.2947 -18.7951 -5.13796 9.35842 4.772 -1.77636e-15 0 -40.41 -3.48124 9.68379 2.8722 -1.42109e-14 0 -18.6837 -0.673375 6.1557 8.6586 1.0176 -1.7016 -29.6296 0.467014 9.89332 4.5461 -8.88178e-16 0 -35.5345 -1.4731 4.5947 2.506 0 0 -17.9576 -0.329934 3.36472 7.6901 0.6618 -3.9096 -36.4668 -14.9346 14.0354 3.2119 -1.77636e-15 -7.10543e-15 -26.2958 -2.07359 8.86034 1.924 -1.42109e-14 0 -5.04246 -0.0180439 3.28306 -4.0677 26.6109 -1.1234 6.97345 -1.40968 11.7274 -14.1772 2.84217e-14 -1.77636e-15 73.3417 6.73708 -1.39655 -26.1234 -7.10543e-15 0 0.159791 -0.232227 9.3457 -27.7188 0 0 12.2807 5.06336 -1.12101 -2.2979 -0.4684 1.8313 -26.7892 60.8108 46.2342 -5.2953 3.55271e-15 3.55271e-15 24.2438 7.53617 -11.4337 -3.0181 0 -2.66454e-15 -7.41455 15.0173 -17.4238 -9.3793 0.2991 2.5924 12.1795 -1.9445 -2.4779 -4.3461 6.66134e-16 0 29.0979 -1.07332 -5.19772 -2.1666 0 0 17.5565 -0.477203 -2.74439 -9.4769 0.8376 0.2947 15.8076 -5.01496 -0.604665 -4.772 -4.44089e-15 0 35.6975 -2.47718 -7.96161 -2.8722 -7.10543e-15 0 23.6085 -1.0296 -6.74795 -8.6586 1.0176 -1.7016 33.1595 0.170122 -2.65183 -4.5461 -7.10543e-15 1.77636e-15 22.5617 -0.511889 -2.56532 -2.506 7.10543e-15 -1.77636e-15 14.3181 -0.161171 -2.43984 -7.6901 0.6618 -3.9096 34.3111 -11.3618 -0.736829 -3.2119 0 0 28.3396 -2.24135 -8.86081 -1.924 1.42109e-14 -3.55271e-15 8.51145 -0.149709 -4.1822 8.7379 -0.0029 0.0005 10.2608 -19.0239 20.6534 0 -46.6676 0 5.98247 29.426 5.03967 0 -40.1476 1.77636e-15 -8.99474 -10.8613 26.1792 0 -8.8846 14.2294 0.0001 0 3.18055e-15 -8.7379 0.0029 -0.0005 -3.99179 -13.1989 -16.555 0 -46.6676 4.44089e-15 -5.51325 25.8012 -4.64113 3.55271e-15 -40.1476 -1.77636e-15 8.96074 -14.5277 -9.44673 7.10543e-15 -8.8846 14.2294 2.98177e-16 4.96962e-17 -6.36111e-15 
5.32657 94.5723 -12.0919 0.497658 4.10778 -23.1439 4.44089e-16 7.2397 0 0.467723 -1.05502 1.22931 4.44089e-16 16.546 0 0.68985 -0.24338 2.38542 0 34.2149 0 3.08171 18.7241 0.475245 0 6.2923 0 -3.81501 -13.2469 10.4801 4.0639 26.6115 -1.1234 -3.50321 -2.56583 -5.29985 14.1772 0 -1.77636e-15 -68.6852 21.3825 5.36223 26.1234 7.10543e-15 0 -0.214296 -0.295877 -12.1214 27.7188 7.10543e-15 0 -14.1695 -3.22243 0.610826 2.2979 -0.4685 1.8313 79.1408 56.8979 -89.2112 5.2953 0 -3.55271e-15 -31.8073 5.56049 7.15344 3.0181 0 0 12.6073 5.36977 1.1131 9.3793 0.2991 2.5924 -17.7482 -2.36606 4.48002 4.3461 1.77636e-15 -7.10543e-15 -31.2006 -1.45134 6.18263 2.1666 0 -7.10543e-15 -21.6403 -0.812856 3.85449 9.4769 0.8376 0.2947 -18.5728 -5.12333 9.22329 4.772 -3.55271e-15 0 -40.3578 -3.47235 9.6733 2.8722 -7.10543e-15 0 -18.6828 -0.673299 6.15549 8.6586 1.0176 -1.7016 -29.5207 0.477427 9.82152 4.5461 7.10543e-15 -7.10543e-15 -35.4753 -1.46836 4.58802 2.506 -7.10543e-15 7.10543e-15 -17.946 -0.329436 3.36321 7.6901 0.6618 -3.9096 -36.4498 -14.9275 13.9964 3.2119 -5.32907e-15 -7.10543e-15 -26.1956 -2.05799 8.82867 1.924 7.10543e-15 0 -5.04105 -0.0179893 3.28256 -4.0677 26.6109 -1.1234 6.96329 -1.40825 11.6422 -14.1772 0 1.77636e-15 73.2159 7.22449 -1.209 -26.1234 0 0 0.183853 -0.261177 10.5938 -27.7188 -7.10543e-15 -1.77636e-15 11.7498 4.61592 -0.252731 -2.2979 -0.4684 1.8313 -26.7892 60.8108 46.2342 -5.2953 -3.55271e-15 3.55271e-15 24.289 7.53022 -11.4256 -3.0181 4.44089e-16 1.77636e-15 -7.35036 14.9119 -17.3656 -9.3793 0.2991 2.5924 12.3481 -1.95495 -2.4707 -4.3461 -3.66374e-15 -8.88178e-16 29.5213 -1.11209 -5.26677 -2.1666 0 0 17.5557 -0.47716 -2.74424 -9.4769 0.8376 0.2947 15.8735 -5.01947 -0.608917 -4.772 -1.77636e-15 4.44089e-15 35.683 -2.47516 -7.9588 -2.8722 -7.10543e-15 0 23.6388 -1.03248 -6.75452 -8.6586 1.0176 -1.7016 33.2227 0.163157 -2.6507 -4.5461 -3.55271e-15 8.88178e-16 22.5567 -0.511665 -2.56479 -2.506 7.10543e-15 1.77636e-15 14.3262 -0.161409 -2.44075 -7.6901 0.6618 -3.9096 34.4291 -11.3742 -0.722078 -3.2119 0 -1.77636e-15 28.3975 -2.25037 -8.87753 -1.924 -7.10543e-15 3.55271e-15 8.46018 -0.147247 -4.16573 8.7379 -0.0029 0.0005 10.3464 -18.9252 20.5252 0 -46.6676 3.55271e-15 6.14617 29.0538 4.98608 -3.55271e-15 -40.1476 1.33227e-15 -9.39254 -10.1373 26.2682 0 -8.8846 14.2294 0.0001 1.98785e-16 -6.36111e-15 -8.7379 0.0029 -0.0005 -3.70601 -13.6882 -16.339 -1.77636e-15 -46.6676 -8.88178e-16 -5.84913 26.8126 -4.59442 0 -40.1476 0 8.58664 -15.125 -9.67601 -3.55271e-15 -8.8846 14.2294 2.75869e-33 -4.96962e-17 3.18055e-15 
4.66287 94.5116 -12.6931 0.759644 3.86386 -22.9402 -4.44089e-16 7.2397 0 0.58154 -1.01163 1.0842 -4.44089e-16 16.546 -3.55271e-15 1.0496 -0.154726 2.08069 -8.88178e-16 34.2149 3.55271e-15 3.11062 18.7885 0.52003 -1.77636e-15 6.2923 0 -4.23179 -13.8134 10.6754 4.0639 26.6115 -1.1234 -3.64325 -2.55789 -5.42583 14.1772 -2.84217e-14 1.77636e-15 -69.7268 22.0013 5.65521 26.1234 0 7.10543e-15 -0.231804 -0.31508 -12.983 27.7188 0 0 -14.4794 -3.11069 0.312085 2.2979 -0.4685 1.8313 79.1408 56.8979 -89.2112 5.2953 0 0 -31.8866 5.52282 7.15103 3.0181 0 -3.55271e-15 12.5754 5.35042 1.09761 9.3793 0.2991 2.5924 -17.7132 -2.3733 4.45342 4.3461 1.77636e-15 0 -31.2685 -1.45871 6.19478 2.1666 -7.10543e-15 1.42109e-14 -21.4798 -0.800854 3.82407 9.4769 0.8376 0.2947 -18.5185 -5.12171 9.14713 4.772 0 0 -40.3631 -3.47325 9.6744 2.8722 7.10543e-15 7.10543e-15 -18.6793 -0.673001 6.15462 8.6586 1.0176 -1.7016 -29.4705 0.482532 9.79747 4.5461 8.88178e-15 0 -35.4814 -1.46884 4.58872 2.506 -1.42109e-14 0 -17.9142 -0.328084 3.35902 7.6901 0.6618 -3.9096 -36.3812 -14.9119 13.9494 3.2119 7.10543e-15 7.10543e-15 -26.2015 -2.0589 8.83056 1.924 0 7.10543e-15 -5.05869 -0.0185368 3.28867 -4.0677 26.6109 -1.1234 6.96589 -1.40583 11.5776 -14.1772 0 0 73.0269 7.57736 -1.07795 -26.1234 -7.10543e-15 3.55271e-15 0.202283 -0.282362 11.5226 -27.7188 -7.10543e-15 0 11.3189 4.07177 0.460644 -2.2979 -0.4684 1.8313 -26.7892 60.8108 46.2342 -5.2953 3.55271e-15 3.55271e-15 24.3216 7.52595 -11.4197 -3.0181 8.88178e-16 1.33227e-15 -7.35517 14.9274 -17.3713 -9.3793 0.2991 2.5924 12.4454 -1.96032 -2.49663 -4.3461 -3.55271e-15 1.77636e-15 29.2982 -1.0916 -5.23042 -2.1666 0 0 17.5545 -0.477093 -2.74404 -9.4769 0.8376 0.2947 15.9199 -5.02244 -0.627988 -4.772 -1.77636e-15 1.77636e-15 35.7632 -2.48637 -7.97439 -2.8722 7.10543e-15 0 23.6292 -1.03157 -6.75243 -8.6586 1.0176 -1.7016 33.2544 0.15955 -2.64455 -4.5461 -3.55271e-15 0 22.5307 -0.510503 -2.56198 -2.506 0 -8.88178e-16 14.2978 -0.160587 -2.43755 -7.6901 0.6618 -3.9096 34.4576 -11.3764 -0.754494 -3.2119 -7.10543e-15 -1.77636e-15 28.4464 -2.25801 -8.89166 -1.924 0 0 8.38409 -0.143636 -4.14129 8.7379 -0.0029 0.0005 10.4335 -18.9172 20.4166 0 -46.6676 0 6.24941 28.6774 4.95817 3.55271e-15 -40.1476 8.88178e-16 -9.75399 -9.36022 26.1536 0 -8.8846 14.2294 0.0001 -9.93923e-17 -0 -8.7379 0.0029 -0.0005 -3.53952 -14.1805 -16.2965 -1.77636e-15 -46.6676 8.88178e-16 -6.01654 27.7997 -4.57511 3.55271e-15 -40.1476 -1.77636e-15 8.13094 -15.7248 -9.95134 3.55271e-15 -8.8846 14.2294 -9.93923e-17 4.96962e-17 -0 
4.03918 94.4692 -13.306 1.06743 3.68805 -22.6293 8.88178e-16 7.2397 0 0.7091 -0.986255 0.960756 -8.88178e-16 16.546 0 1.42097 -0.102651 1.8176 0 34.2149 3.55271e-15 3.03106 18.8331 0.56836 -1.77636e-15 6.2923 0 -4.56474 -14.286 10.7185 4.0639 26.6115 -1.1234 -3.94185 -2.53566 -5.44947 14.1772 0 -1.77636e-15 -70.588 22.7083 5.68986 26.1234 0 -7.10543e-15 -0.248456 -0.332758 -13.7864 27.7188 7.10543e-15 0 -14.0769 -2.70872 -0.0589295 2.2979 -0.4685 1.8313 79.1408 56.8979 -89.2112 5.2953 0 1.77636e-15 -31.9373 5.49822 7.1496 3.0181 1.77636e-15 3.55271e-15 12.5208 5.31565 1.0686 9.3793 0.2991 2.5924 -17.7174 -2.38154 4.43766 4.3461 8.88178e-16 0 -31.1531 -1.44621 6.17415 2.1666 0 -3.55271e-15 -21.429 -0.797072 3.81446 9.4769 0.8376 0.2947 -18.5342 -5.12287 9.1542 4.772 1.33227e-15 0 -40.3473 -3.47057 9.67123 2.8722 7.10543e-15 0 -18.673 -0.672475 6.15307 8.6586 1.0176 -1.7016 -29.5006 0.47911 9.80312 4.5461 3.55271e-15 0 -35.4286 -1.46462 4.58276 2.506 7.10543e-15 0 -17.8859 -0.326895 3.35532 7.6901 0.6618 -3.9096 -36.4249 -14.9039 13.9705 3.2119 0 0 -26.2046 -2.05939 8.83154 1.924 -7.10543e-15 -7.10543e-15 -5.04982 -0.0182646 3.2856 -4.0677 26.6109 -1.1234 6.89952 -1.41506 11.5538 -14.1772 -2.84217e-14 0 72.8343 7.7774 -0.9632 -26.1234 7.10543e-15 0 0.210904 -0.292116 11.9544 -27.7188 0 -3.55271e-15 10.9766 3.81805 0.765195 -2.2979 -0.4684 1.8313 -26.7892 60.8108 46.2342 -5.2953 -7.10543e-15 -3.55271e-15 24.1876 7.5436 -11.4439 -3.0181 -8.88178e-16 3.10862e-15 -7.42237 15.0404 -17.428 -9.3793 0.2991 2.5924 12.5133 -1.96341 -2.54304 -4.3461 0 -8.88178e-16 28.772 -1.04383 -5.14435 -2.1666 7.10543e-15 -8.88178e-16 17.5541 -0.477071 -2.74397 -9.4769 0.8376 0.2947 15.9388 -5.02362 -0.639345 -4.772 1.77636e-15 0 35.7429 -2.48354 -7.97045 -2.8722 0 -8.88178e-16 23.6641 -1.03488 -6.76 -8.6586 1.0176 -1.7016 33.275 0.157944 -2.67953 -4.5461 0 0 22.5508 -0.511399 -2.56414 -2.506 -1.42109e-14 1.77636e-15 14.2893 -0.160343 -2.43659 -7.6901 0.6618 -3.9096 34.4398 -11.3732 -0.798095 -3.2119 -7.10543e-15 8.88178e-16 28.4128 -2.25276 -8.88195 -1.924 -1.42109e-14 0 8.37006 -0.142969 -4.13678 8.7379 -0.0029 0.0005 10.6042 -19.0312 20.4272 0 -46.6676 3.55271e-15 6.17823 28.3764 4.96887 -7.10543e-15 -40.1476 0 -10.1117 -8.56768 25.8252 3.55271e-15 -8.8846 14.2294 0.0001 0 3.18055e-15 -8.7379 0.0029 -0.0005 -3.46728 -14.6743 -16.3621 0 -46.6676 1.77636e-15 -6.05423 28.639 -4.59191 0 -40.1476 0 7.6131 -16.2348 -10.2691 3.55271e-15 -8.8846 14.2294 0 0 -3.18055e-15 
